<svg width="1142" height="265" viewBox="0 0 1142 265" fill="none" xmlns="http://www.w3.org/2000/svg">
<path d="M140.771 156V127.159C140.771 127.104 140.726 127.059 140.671 127.059H59.3358C59.2364 127.059 59.1979 126.93 59.2811 126.875L130.677 80.2131C130.76 80.1587 130.722 80.0294 130.623 80.0294H72.4191C72.3197 80.0294 72.2812 79.9001 72.3644 79.8457L143.987 33.0358C144.02 33.014 144.063 33.014 144.096 33.0358L215.719 79.8457C215.802 79.9001 215.764 80.0294 215.664 80.0294H189.833C180.021 80.0294 160.396 83.6471 160.396 105.353C160.396 127.059 180.021 130.676 189.833 127.059" stroke="#5ABE88" stroke-width="15" stroke-linecap="square"/>
<path d="M193.62 122.565C190.955 109.199 203.654 103.193 210.337 101.86C211.548 107.935 208.322 119.633 193.62 122.565C206.986 119.9 215.788 129.198 216.999 135.273C210.317 136.606 196.285 135.93 193.62 122.565Z" fill="#5ABE88"/>
<path d="M193.62 122.565C190.955 109.199 203.654 103.193 210.337 101.86C211.548 107.935 208.322 119.633 193.62 122.565ZM193.62 122.565C196.285 135.93 210.317 136.606 216.999 135.273C215.788 129.198 206.986 119.9 193.62 122.565Z" stroke="#5ABE88" stroke-width="7"/>
<path d="M110.196 156H59.1161C59.0549 156 59.0076 156.051 59.0167 156.111C62.8002 181.148 83.7512 231 137.5 231C191.249 231 212.2 181.148 215.983 156.111C215.992 156.051 215.945 156 215.884 156H171.63" stroke="#5ABE88" stroke-width="15" stroke-linecap="square"/>
<path d="M339.525 194C328.953 194 319.539 191.607 311.285 186.821C303.03 181.889 296.586 175.145 291.951 166.588C287.317 158.031 285 148.168 285 137C285 125.832 287.39 115.969 292.169 107.412C296.948 98.855 303.465 92.1832 311.719 87.3969C319.974 82.4656 329.532 80 340.394 80C349.952 80 358.641 82.5382 366.461 87.6145C374.281 92.5458 380.436 99.7252 384.926 109.153C389.56 118.58 391.877 129.821 391.877 142.874H367.33C367.475 133.447 366.389 125.687 364.072 119.595C361.899 113.504 358.713 109.008 354.513 106.107C350.314 103.061 345.317 101.538 339.525 101.538C333.442 101.538 328.229 102.916 323.884 105.672C319.684 108.427 316.426 112.489 314.109 117.855C311.792 123.076 310.633 129.676 310.633 137.653C310.633 144.76 312.009 150.851 314.76 155.927C317.512 161.004 321.205 164.92 325.839 167.676C330.618 170.286 335.904 171.592 341.697 171.592C348.069 171.592 353.355 170.141 357.555 167.24C361.754 164.195 365.013 160.351 367.33 155.71L389.705 165.282C386.663 171.084 382.826 176.16 378.191 180.511C373.557 184.863 367.982 188.198 361.465 190.519C354.948 192.84 347.635 194 339.525 194ZM300.858 142.874L301.075 123.511H379.278V142.874H300.858Z" fill="white"/>
<path d="M451.729 194C440.578 194 430.73 191.607 422.186 186.821C413.641 181.889 406.907 175.145 401.983 166.588C397.204 158.031 394.815 148.168 394.815 137C394.815 125.832 397.204 115.969 401.983 107.412C406.907 98.855 413.569 92.1832 421.968 87.3969C430.513 82.4656 440.288 80 451.294 80C462.011 80 471.714 82.6107 480.403 87.8321C489.092 92.9084 495.537 100.233 499.736 109.805L477.145 118.508C474.827 113.721 471.279 109.878 466.5 106.977C461.721 104.076 456.291 102.626 450.208 102.626C444.271 102.626 438.985 104.149 434.35 107.195C429.716 110.095 426.096 114.156 423.489 119.378C420.882 124.454 419.579 130.328 419.579 137C419.579 143.672 420.882 149.618 423.489 154.84C426.24 159.916 429.933 163.977 434.568 167.023C439.347 169.924 444.705 171.374 450.643 171.374C456.725 171.374 462.156 169.851 466.935 166.805C471.714 163.615 475.262 159.336 477.579 153.969L500.171 162.672C495.971 172.534 489.527 180.221 480.837 185.733C472.293 191.244 462.59 194 451.729 194Z" fill="white"/>
<path d="M559.68 194C548.674 194 538.898 191.607 530.354 186.821C521.954 181.889 515.365 175.145 510.586 166.588C505.807 158.031 503.417 148.168 503.417 137C503.417 125.832 505.735 115.969 510.369 107.412C515.148 98.855 521.737 92.1832 530.137 87.3969C538.681 82.4656 548.384 80 559.245 80C570.252 80 579.955 82.4656 588.354 87.3969C596.754 92.1832 603.343 98.855 608.122 107.412C612.901 115.969 615.291 125.832 615.291 137C615.291 148.168 612.901 158.031 608.122 166.588C603.343 175.145 596.754 181.889 588.354 186.821C580.099 191.607 570.541 194 559.68 194ZM559.68 170.504C565.473 170.504 570.541 169.126 574.886 166.37C579.375 163.469 582.851 159.481 585.313 154.405C587.92 149.328 589.223 143.527 589.223 137C589.223 130.473 587.92 124.672 585.313 119.595C582.851 114.519 579.303 110.603 574.669 107.847C570.179 104.947 565.038 103.496 559.245 103.496C553.453 103.496 548.312 104.947 543.822 107.847C539.333 110.603 535.785 114.519 533.178 119.595C530.716 124.672 529.485 130.473 529.485 137C529.485 143.527 530.716 149.328 533.178 154.405C535.785 159.481 539.333 163.469 543.822 166.37C548.456 169.126 553.742 170.504 559.68 170.504Z" fill="white"/>
<path d="M657.471 191.389L699.83 82.6107H725.029L680.28 191.389H657.471ZM655.733 191.389L610.766 82.6107H635.748L678.325 191.389H655.733Z" fill="white"/>
<path d="M776.147 194C765.576 194 756.162 191.607 747.908 186.821C739.653 181.889 733.208 175.145 728.574 166.588C723.94 158.031 721.623 148.168 721.623 137C721.623 125.832 724.012 115.969 728.791 107.412C733.57 98.855 740.087 92.1832 748.342 87.3969C756.597 82.4656 766.155 80 777.016 80C786.574 80 795.264 82.5382 803.084 87.6145C810.904 92.5458 817.059 99.7252 821.548 109.153C826.183 118.58 828.5 129.821 828.5 142.874H803.953C804.098 133.447 803.011 125.687 800.694 119.595C798.522 113.504 795.336 109.008 791.136 106.107C786.936 103.061 781.94 101.538 776.147 101.538C770.065 101.538 764.851 102.916 760.507 105.672C756.307 108.427 753.049 112.489 750.732 117.855C748.414 123.076 747.256 129.676 747.256 137.653C747.256 144.76 748.632 150.851 751.383 155.927C754.135 161.004 757.828 164.92 762.462 167.676C767.241 170.286 772.527 171.592 778.32 171.592C784.692 171.592 789.978 170.141 794.177 167.24C798.377 164.195 801.636 160.351 803.953 155.71L826.327 165.282C823.286 171.084 819.448 176.16 814.814 180.511C810.18 184.863 804.604 188.198 798.088 190.519C791.571 192.84 784.257 194 776.147 194ZM737.481 142.874L737.698 123.511H815.9V142.874H737.481Z" fill="white"/>
<path d="M853.595 133.519C853.595 121.771 855.839 112.126 860.329 104.584C864.818 97.042 870.611 91.458 877.707 87.8321C884.948 84.0611 892.479 82.1756 900.299 82.1756V105.454C893.637 105.454 887.338 106.397 881.4 108.282C875.607 110.023 870.901 112.924 867.28 116.985C863.66 121.046 861.849 126.412 861.849 133.084L853.595 133.519ZM837.52 191.389V82.6107H861.849V191.389H837.52Z" fill="white"/>
<path d="M945.109 194C937.869 194 931.207 192.912 925.124 190.737C919.042 188.561 913.828 185.515 909.484 181.599C905.139 177.538 901.808 172.824 899.491 167.458L920.563 158.103C922.735 162.019 925.921 165.355 930.121 168.111C934.465 170.721 939.244 172.027 944.458 172.027C949.961 172.027 954.378 171.156 957.709 169.416C961.184 167.531 962.922 164.847 962.922 161.366C962.922 158.031 961.619 155.492 959.012 153.752C956.405 151.866 952.785 150.344 948.151 149.183L937.941 146.355C927.514 143.744 919.404 139.611 913.611 133.954C907.818 128.153 904.922 121.553 904.922 114.156C904.922 103.279 908.47 94.8664 915.566 88.9198C922.662 82.9733 932.8 80 945.978 80C952.64 80 958.722 81.0153 964.226 83.0458C969.874 84.9313 974.725 87.687 978.78 91.313C982.835 94.7939 985.659 98.9275 987.252 103.714L967.05 112.851C965.601 109.225 962.85 106.469 958.795 104.584C954.74 102.698 950.251 101.756 945.327 101.756C940.548 101.756 936.782 102.844 934.031 105.019C931.279 107.05 929.903 109.878 929.903 113.504C929.903 115.679 931.134 117.71 933.596 119.595C936.058 121.336 939.534 122.786 944.023 123.947L956.84 126.992C963.936 128.733 969.729 131.489 974.218 135.26C978.852 138.886 982.256 143.019 984.428 147.66C986.6 152.156 987.686 156.725 987.686 161.366C987.686 167.893 985.804 173.622 982.039 178.553C978.418 183.485 973.422 187.328 967.05 190.084C960.678 192.695 953.364 194 945.109 194Z" fill="white"/>
<path d="M1045.65 194C1035.08 194 1025.66 191.607 1017.41 186.821C1009.15 181.889 1002.71 175.145 998.074 166.588C993.44 158.031 991.123 148.168 991.123 137C991.123 125.832 993.513 115.969 998.292 107.412C1003.07 98.855 1009.59 92.1832 1017.84 87.3969C1026.1 82.4656 1035.66 80 1046.52 80C1056.07 80 1064.76 82.5382 1072.58 87.6145C1080.4 92.5458 1086.56 99.7252 1091.05 109.153C1095.68 118.58 1098 129.821 1098 142.874H1073.45C1073.6 133.447 1072.51 125.687 1070.19 119.595C1068.02 113.504 1064.84 109.008 1060.64 106.107C1056.44 103.061 1051.44 101.538 1045.65 101.538C1039.57 101.538 1034.35 102.916 1030.01 105.672C1025.81 108.427 1022.55 112.489 1020.23 117.855C1017.91 123.076 1016.76 129.676 1016.76 137.653C1016.76 144.76 1018.13 150.851 1020.88 155.927C1023.64 161.004 1027.33 164.92 1031.96 167.676C1036.74 170.286 1042.03 171.592 1047.82 171.592C1054.19 171.592 1059.48 170.141 1063.68 167.24C1067.88 164.195 1071.14 160.351 1073.45 155.71L1095.83 165.282C1092.79 171.084 1088.95 176.16 1084.31 180.511C1079.68 184.863 1074.1 188.198 1067.59 190.519C1061.07 192.84 1053.76 194 1045.65 194ZM1006.98 142.874L1007.2 123.511H1085.4V142.874H1006.98Z" fill="white"/>
</svg>
